<?xml version="1.0" encoding="UTF-8" standalone="no"?>
<!-- Created with Inkscape (http://www.inkscape.org/) -->

<svg
   width="210mm"
   height="297mm"
   viewBox="0 0 210 297"
   version="1.1"
   id="svg1"
   xml:space="preserve"
   sodipodi:docname="logo2.svg"
   inkscape:version="1.3.2 (091e20e, 2023-11-25, custom)"
   xmlns:inkscape="http://www.inkscape.org/namespaces/inkscape"
   xmlns:sodipodi="http://sodipodi.sourceforge.net/DTD/sodipodi-0.dtd"
   xmlns="http://www.w3.org/2000/svg"
   xmlns:svg="http://www.w3.org/2000/svg"><sodipodi:namedview
     id="namedview1"
     pagecolor="#ffffff"
     bordercolor="#000000"
     borderopacity="0.25"
     inkscape:showpageshadow="2"
     inkscape:pageopacity="0.0"
     inkscape:pagecheckerboard="0"
     inkscape:deskcolor="#d1d1d1"
     inkscape:document-units="mm"
     inkscape:zoom="0.31723122"
     inkscape:cx="168.64671"
     inkscape:cy="562.68107"
     inkscape:window-width="1366"
     inkscape:window-height="697"
     inkscape:window-x="-8"
     inkscape:window-y="-8"
     inkscape:window-maximized="1"
     inkscape:current-layer="layer1" /><defs
     id="defs1" /><g
     inkscape:label="Layer 1"
     inkscape:groupmode="layer"
     id="layer1"><path
       style="fill:#000000;stroke-width:0.940189"
       d="m 154.36513,222.05177 c -1.91935,-0.56824 -4.77936,-2.26519 -7.0164,-4.16308 -1.09339,-0.92763 -2.61552,-1.96788 -3.38252,-2.31166 -1.00148,-0.44888 -1.83306,-1.11335 -2.95034,-2.35743 -2.48966,-2.77224 -3.49231,-5.6255 -3.48733,-9.9239 0.004,-3.44918 0.8201,-6.28939 2.54462,-8.85586 0.9729,-1.44789 3.09787,-3.0535 4.91696,-3.7152 1.42357,-0.51783 2.00878,-0.58796 4.00097,-0.47943 2.09473,0.11411 2.51048,0.22606 4.06302,1.0941 1.22966,0.68751 2.10971,1.43156 3.04504,2.57446 2.2889,2.79684 3.0544,5.1427 3.05802,9.37137 0.002,2.53655 -0.0817,3.1692 -0.65279,4.92494 -1.05281,3.23657 -3.8506,6.6592 -6.06876,7.42409 -0.48237,0.16634 -0.87705,0.37724 -0.87705,0.46867 0,0.3425 2.44921,2.21751 3.89946,2.98525 1.88874,0.99988 3.99971,1.25123 5.30938,0.63218 1.09429,-0.51725 1.08189,-0.51648 1.08189,-0.0669 0,0.48864 -1.54426,1.66615 -3.01313,2.29754 -1.40174,0.60254 -2.67929,0.63138 -4.47104,0.10091 z m -4.17526,-7.8294 c 2.353,-0.79752 3.84114,-4.1302 4.3046,-9.64012 0.72607,-8.63194 -3.7801,-14.61261 -8.82909,-11.71815 -1.92716,1.10479 -3.20097,4.51662 -3.39667,9.09785 -0.27173,6.36048 1.08211,10.68233 3.78063,12.06895 1.08711,0.5586 2.82082,0.63877 4.14053,0.19147 z m -60.375636,2.05885 c -2.832764,-0.74698 -5.850786,-3.37632 -7.102282,-6.18759 -0.687841,-1.54512 -1.317399,-4.6091 -1.317399,-6.41161 0,-1.92798 0.645111,-4.89994 1.46357,-6.74251 1.354448,-3.04923 4.514763,-5.73158 7.610794,-6.45975 3.033903,-0.71355 8.542904,-0.001 8.931456,1.15495 0.103599,0.30827 0.225576,1.71636 0.271065,3.1291 0.07903,2.45484 0.06117,2.56861 -0.403553,2.56841 -0.355485,-1.5e-4 -0.635873,-0.36159 -1.042619,-1.34401 -1.222497,-2.95273 -3.907117,-4.384 -6.903207,-3.68036 -3.772979,0.88609 -5.898743,6.624 -5.014922,13.53638 0.382121,2.98858 1.07067,4.65265 2.678266,6.4728 1.263172,1.43018 1.597231,1.6619 2.804775,1.94549 3.105475,0.72933 5.405515,-0.65106 6.828564,-4.09821 0.30037,-0.72761 0.547153,-1.53128 0.548408,-1.78594 0.0027,-0.46381 0.798893,-0.66676 1.02104,-0.26014 0.061,0.11159 -0.0341,1.61328 -0.211398,3.33709 -0.366966,3.56923 -0.332642,3.51257 -2.678395,4.42154 -1.848299,0.7162 -5.544288,0.91589 -7.484163,0.40436 z m 80.220856,0.19995 c -2.96699,-0.61998 -5.36783,-2.48267 -6.34146,-4.92001 -0.54274,-1.35868 -0.56119,-1.63547 -0.67494,-10.1281 -0.0644,-4.80219 -0.20609,-8.88742 -0.31507,-9.0783 -0.10896,-0.19088 -0.45102,-0.45582 -0.7601,-0.58876 -0.30909,-0.13295 -0.56199,-0.42326 -0.56199,-0.64514 0,-0.3447 0.54472,-0.40343 3.74208,-0.40343 3.4326,0 3.74209,0.039 3.74209,0.47116 0,0.27818 -0.28104,0.59117 -0.68614,0.76415 -0.51515,0.21997 -0.72313,0.51607 -0.83458,1.18822 -0.0817,0.49238 -0.11495,4.46813 -0.074,8.83501 0.0743,7.91863 0.0761,7.94328 0.67198,9.25233 0.90073,1.97861 2.2697,2.83834 4.73788,2.97541 1.68261,0.0935 2.04256,0.029 2.96736,-0.53163 1.4369,-0.87102 2.26764,-2.30782 2.56361,-4.43381 0.32734,-2.35139 0.31665,-15.29229 -0.0135,-16.36374 -0.18631,-0.60459 -0.45816,-0.89141 -0.99364,-1.04839 -0.40544,-0.11885 -0.77135,-0.41693 -0.81314,-0.6624 -0.0679,-0.39879 0.22466,-0.44631 2.74773,-0.44631 2.66779,0 2.82371,0.0292 2.82371,0.52917 0,0.29104 -0.14156,0.52917 -0.31457,0.52917 -0.17301,0 -0.51507,0.25034 -0.76011,0.55632 -0.4126,0.51519 -0.45504,1.18508 -0.5741,9.06198 -0.12079,7.9917 -0.16013,8.59594 -0.65097,9.99978 -1.20242,3.43903 -3.35844,5.03806 -6.93851,5.14602 -1.15771,0.0349 -2.36803,0.008 -2.68962,-0.0587 z M 9.8272581,215.63598 c 0,-0.2648 0.2586319,-0.73585 0.5747389,-1.04679 0.930805,-0.91557 1.32083,-2.04169 4.579433,-13.22228 l 3.103811,-10.64948 h 1.579084 1.579084 l 0.390425,1.25677 c 0.214733,0.69123 1.691988,5.5741 3.282789,10.85084 2.949713,9.78428 3.611645,11.58189 4.364315,11.85213 0.258399,0.0928 0.426123,0.40634 0.426123,0.79663 v 0.64363 h -3.85902 c -3.718826,0 -3.859021,-0.0195 -3.859021,-0.53571 0,-0.31171 0.220039,-0.63092 0.52623,-0.76339 0.289426,-0.12522 0.731177,-0.48503 0.981669,-0.79958 0.453041,-0.56889 0.451335,-0.58612 -0.323919,-3.27151 -0.428647,-1.48478 -0.885522,-2.77673 -1.01528,-2.871 -0.129757,-0.0943 -1.754176,-0.17832 -3.60982,-0.18676 l -3.373899,-0.0153 -0.324125,0.87758 c -0.17827,0.48267 -0.529765,1.75733 -0.781101,2.83259 -0.527215,2.2555 -0.371626,2.84115 0.867808,3.26649 0.54814,0.18811 0.737676,0.40905 0.737676,0.8599 0,0.60024 -0.03133,0.60674 -2.923501,0.60674 -2.671004,0 -2.9234999,-0.0416 -2.9234999,-0.48145 z M 20.543333,202.02837 c -0.6439,-2.07367 -1.333757,-4.3324 -1.533014,-5.01939 -0.327828,-1.13028 -0.76338,-1.4881 -0.76338,-0.62713 0,0.18783 -0.578853,2.29305 -1.28634,4.67827 -0.707487,2.38521 -1.28634,4.42716 -1.28634,4.53766 0,0.1105 1.358956,0.2009 3.019902,0.2009 h 3.019901 z m 11.034769,13.44601 c 0,-0.46301 0.145699,-0.66673 0.520375,-0.72761 1.05069,-0.17071 1.10967,-0.77349 1.113338,-11.37826 0.002,-5.77357 -0.09152,-10.25338 -0.222161,-10.64209 -0.128313,-0.38179 -0.481329,-0.7439 -0.81858,-0.83965 -0.369414,-0.10489 -0.592972,-0.35431 -0.592972,-0.66157 0,-0.46932 0.359613,-0.49676 7.425691,-0.56663 4.084131,-0.0404 7.443212,-0.0734 7.464626,-0.0734 0.02142,0 0.114711,1.27992 0.207328,2.84427 0.163208,2.7567 0.153566,2.84427 -0.313147,2.84427 -0.338415,0 -0.558051,-0.26226 -0.738963,-0.8824 -0.301065,-1.03199 -1.25811,-2.14146 -2.191348,-2.54035 -0.362118,-0.15478 -1.861873,-0.28141 -3.33279,-0.28141 h -2.674396 v 4.7625 4.7625 h 2.554736 c 2.405701,0 2.596618,-0.0399 3.272659,-0.6834 0.394858,-0.37587 0.803825,-1.06048 0.908819,-1.52135 0.130773,-0.57405 0.352276,-0.86459 0.703302,-0.92251 0.508548,-0.0839 0.512406,-0.0535 0.512406,4.0349 v 4.11944 H 44.82156 c -0.421822,0 -0.587111,-0.179 -0.686993,-0.74398 -0.07234,-0.40918 -0.339143,-1.03402 -0.592892,-1.38853 -0.429383,-0.59988 -0.650833,-0.65376 -3.194844,-0.77738 -1.503415,-0.073 -2.779967,-0.0473 -2.836782,0.0572 -0.05681,0.10449 -0.0601,2.22362 -0.0073,4.70919 0.09086,4.27713 0.124855,4.55395 0.634646,5.16784 0.296254,0.35674 0.783413,0.64863 1.082575,0.64863 0.424274,0 0.543932,0.14551 0.543932,0.66145 v 0.66146 H 35.671001 31.5781 Z m 17.774884,-0.0184 c 0,-0.37291 0.135249,-0.66145 0.310052,-0.66145 0.170527,0 0.5652,-0.30725 0.87705,-0.68278 l 0.566998,-0.68277 v -9.83441 c 0,-10.62931 -0.07891,-11.40052 -1.199007,-11.71855 -0.339467,-0.0964 -0.555093,-0.35202 -0.555093,-0.65809 0,-0.47729 0.265217,-0.50049 5.721287,-0.50049 6.550929,0 7.373484,0.18983 9.349687,2.15772 1.455097,1.44897 2.003571,2.72457 1.997133,4.64476 -0.0087,2.57694 -1.199409,4.75438 -3.522098,6.44051 -0.64653,0.46934 -1.129424,0.98565 -1.073097,1.14737 0.235672,0.67661 4.46211,7.50778 5.138058,8.30461 0.404435,0.47676 1.132996,1.00163 1.619025,1.16636 0.695378,0.23569 0.88369,0.43155 0.88369,0.91909 0,0.60548 -0.04923,0.61945 -2.163391,0.61377 -3.495432,-0.009 -4.268886,-0.63466 -7.356689,-5.94731 -2.525807,-4.34572 -2.763156,-4.63021 -3.862984,-4.63021 h -0.948115 l 0.114738,3.82342 c 0.124787,4.15827 0.36117,5.01352 1.472936,5.32919 0.416872,0.11836 0.581742,0.3445 0.581742,0.79795 v 0.63277 h -3.975961 -3.975961 z m 9.004382,-12.06599 c 1.915451,-0.59191 3.245268,-2.3979 3.536679,-4.80308 0.342267,-2.82492 -1.266269,-5.43036 -3.70584,-6.00258 -0.736209,-0.17268 -1.683424,-0.27642 -2.104921,-0.23053 l -0.766359,0.0834 -0.06312,5.62239 -0.06312,5.6224 1.115582,-0.001 c 0.613569,-8.1e-4 1.536565,-0.13156 2.051101,-0.29056 z m 12.746463,12.09907 c 0,-0.47715 0.158226,-0.66419 0.657403,-0.77713 0.405104,-0.0917 0.76414,-0.41375 0.93552,-0.83927 0.383569,-0.95236 0.394489,-20.19554 0.01199,-21.14522 -0.146364,-0.36341 -0.567348,-0.77954 -0.93552,-0.92473 -0.368172,-0.14519 -0.669403,-0.44878 -0.669403,-0.67463 0,-0.35502 0.538466,-0.41064 3.975961,-0.41064 3.820041,0 3.975961,0.0208 3.975961,0.52917 0,0.29398 -0.15592,0.52917 -0.35082,0.52917 -0.192952,0 -0.561312,0.23812 -0.81858,0.52916 -0.451714,0.51102 -0.467761,0.88195 -0.467761,10.81224 0,10.00247 0.01322,10.30209 0.484736,10.98021 0.266604,0.38342 0.687588,0.69714 0.93552,0.69714 0.324918,0 0.450785,0.18469 0.450785,0.66145 v 0.66146 h -4.092901 -4.092901 z m 31.807689,0.002 c 0,-0.45913 0.1628,-0.68539 0.57795,-0.80327 1.14027,-0.32376 1.17103,-0.62898 1.14442,-11.35622 -0.0265,-10.69236 -0.0731,-11.14489 -1.18057,-11.45932 -0.3276,-0.093 -0.5418,-0.3517 -0.5418,-0.65432 0,-0.4713 0.23188,-0.50049 3.97597,-0.50049 3.36231,0 3.97595,0.0607 3.97595,0.39333 0,0.21633 -0.36461,0.56567 -0.81025,0.77631 -0.50569,0.23903 -0.85551,0.61332 -0.93066,0.99574 -0.0662,0.33701 -0.14889,2.51775 -0.18373,4.84608 l -0.0634,4.23334 4.96996,0.0714 4.96995,0.0714 -8.8e-4,-3.90787 c -0.002,-4.64505 -0.22495,-5.83507 -1.17124,-6.23915 -0.36725,-0.15682 -0.71741,-0.5001 -0.77815,-0.76286 -0.10335,-0.44707 0.15081,-0.47773 3.96057,-0.47773 3.82462,0 4.071,0.03 4.071,0.4961 0,0.33401 -0.21826,0.54548 -0.66806,0.64724 -1.18068,0.26714 -1.2255,0.7236 -1.15268,11.7386 0.0627,9.48396 0.0931,10.11485 0.51219,10.63849 0.24504,0.30616 0.63972,0.55666 0.87704,0.55666 0.30437,0 0.43151,0.19491 0.43151,0.66145 v 0.66146 h -4.0929 -4.09289 v -0.60674 c 0,-0.45543 0.18871,-0.66988 0.75674,-0.8599 1.20124,-0.40185 1.34088,-1.03999 1.34473,-6.14539 l 0.004,-4.56932 -4.93947,0.0714 -4.93947,0.0714 -0.007,4.78983 c -0.004,2.6344 0.0742,4.9385 0.17348,5.12022 0.0993,0.18172 0.5429,0.5017 0.98584,0.71107 0.54489,0.25756 0.78051,0.52692 0.72857,0.8329 -0.0682,0.40159 -0.5151,0.46035 -3.99127,0.52477 l -3.91451,0.0726 z m 24.55741,-0.0351 c 0,-0.47676 0.12586,-0.66145 0.45078,-0.66145 0.24793,0 0.66892,-0.31372 0.93553,-0.69714 0.47098,-0.67737 0.48473,-0.98097 0.48473,-10.70318 0,-6.91525 -0.0822,-10.21013 -0.26612,-10.66677 -0.14637,-0.36341 -0.56735,-0.77954 -0.93552,-0.92473 -0.36817,-0.14519 -0.6694,-0.44878 -0.6694,-0.67463 0,-0.35502 0.53846,-0.41064 3.97596,-0.41064 3.74409,0 3.97596,0.0292 3.97596,0.50049 0,0.31163 -0.21808,0.5624 -0.57795,0.66458 -1.14515,0.32515 -1.17615,0.62568 -1.17615,11.40264 0,10.77696 0.031,11.0775 1.17615,11.40264 0.41313,0.11731 0.57795,0.34455 0.57795,0.79688 v 0.63277 h -3.97596 -3.97596 z m 56.59897,0.0582 c 0,-0.46019 0.18693,-0.67252 0.76011,-0.86342 1.24653,-0.41515 1.31698,-1.01005 1.3303,-11.23336 0.0131,-10.07071 -0.0807,-10.99939 -1.15803,-11.45941 -0.36725,-0.15682 -0.71742,-0.5001 -0.77816,-0.76286 -0.10473,-0.45307 0.26765,-0.47773 7.21577,-0.47773 4.02941,0 7.49267,-0.0723 7.69615,-0.16059 0.32366,-0.14051 0.36994,0.20709 0.36994,2.77812 0,2.7062 -0.035,2.93872 -0.4424,2.93872 -0.2731,0 -0.49684,-0.24534 -0.58463,-0.64106 -0.20783,-0.93673 -1.29258,-2.28728 -2.17039,-2.7022 -0.48829,-0.23081 -1.6936,-0.3609 -3.3437,-0.3609 h -2.5802 v 4.78729 4.78729 l 2.32048,-0.0909 c 2.08022,-0.0815 2.38346,-0.15791 2.92863,-0.73781 0.33448,-0.35579 0.69099,-1.01063 0.79225,-1.45521 0.12444,-0.54634 0.35019,-0.83573 0.69652,-0.89288 0.50854,-0.0839 0.5124,-0.0535 0.5124,4.0349 v 4.11944 h -0.55867 c -0.44821,0 -0.58765,-0.17472 -0.70522,-0.88373 -0.0806,-0.48605 -0.41629,-1.17066 -0.74599,-1.52135 -0.53482,-0.5689 -0.84955,-0.64743 -2.91992,-0.72857 l -2.32048,-0.0909 v 5.07188 5.07187 l 3.3011,-0.0861 3.30109,-0.0862 1.00889,-1.26138 c 0.5549,-0.69377 1.12987,-1.67603 1.27771,-2.18282 0.18297,-0.62719 0.41238,-0.92142 0.71843,-0.92142 0.24729,0 0.44271,0.14883 0.43426,0.33073 -0.009,0.1819 -0.14079,1.64042 -0.29409,3.24114 l -0.27873,2.91042 -7.89171,0.0697 -7.89171,0.0697 z M 78.704932,181.54489 c -4.018848,-0.37697 -10.162113,-1.57398 -10.595776,-2.06457 -0.06547,-0.0741 0.842457,-1.25904 2.017623,-2.63326 2.298555,-2.68791 4.224857,-5.79935 5.561135,-8.98256 l 0.836172,-1.99189 1.207363,0.54436 c 5.465109,2.46405 14.58084,1.21561 23.206611,-3.17824 3.12919,-1.59397 5.17688,-2.9373 6.4616,-4.23894 0.62877,-0.63704 1.18002,-1.11329 1.22501,-1.05833 0.045,0.055 0.89572,1.35009 1.8905,2.87806 0.99478,1.52797 3.00617,4.12069 4.46974,5.76161 1.46358,1.64092 2.66106,3.018 2.66106,3.06018 0,0.11292 -7.0276,3.92957 -9.47215,5.14426 -2.61065,1.29723 -7.33245,3.27624 -9.845714,4.12654 -6.023118,2.03779 -14.229089,3.13876 -19.623174,2.63278 z m 0.219748,-5.50198 4.195709,-3.54106 2.119053,2.04388 c 2.625784,2.53264 5.026181,4.64767 5.112992,4.50515 0.03598,-0.0591 0.33586,-0.52412 0.666394,-1.03345 0.330535,-0.50932 1.487465,-2.29998 2.570954,-3.97925 l 1.969982,-3.05322 3.734348,2.04897 c 2.053888,1.12692 3.796338,2.05439 3.872108,2.06102 0.0758,0.007 0.58232,-1.80363 1.12567,-4.02283 0.54336,-2.21919 1.02326,-4.16207 1.06646,-4.31752 0.0499,-0.17961 1.55762,0.13097 4.13663,0.85214 5.29935,1.48187 5.82188,1.48519 4.46737,0.0284 -0.42432,-0.45638 -1.27981,-0.87686 -2.51421,-1.23576 -5.70595,-1.659 -6.89381,-1.97024 -7.01146,-1.83713 -0.0713,0.0806 -0.56397,1.89091 -1.09484,4.02281 -0.53087,2.13189 -1.04553,3.87618 -1.14368,3.87618 -0.0982,0 -1.55213,-0.77041 -3.231075,-1.71201 -1.678939,-0.9416 -3.293774,-1.77429 -3.588523,-1.85043 -0.470752,-0.12159 -0.818916,0.3278 -2.863729,3.69638 -1.280302,2.10914 -2.438008,3.83243 -2.572681,3.82954 -0.134671,-0.003 -1.507809,-1.24979 -3.051418,-2.77086 -2.347803,-2.31354 -2.934527,-2.76679 -3.58943,-2.77286 -0.631685,-0.006 -1.435415,0.53545 -4.1619,2.80305 -1.858467,1.54567 -3.453226,2.7274 -3.543911,2.62607 -0.09068,-0.10132 -0.270127,-0.85856 -0.398761,-1.68275 -0.249407,-1.59801 -0.718265,-2.04428 -1.209319,-1.15106 -0.210944,0.3837 -0.198566,1.09878 0.05392,3.11492 0.180246,1.43928 0.329767,2.70618 0.332268,2.81532 0.0096,0.41981 0.481014,0.0714 4.551077,-3.36359 z m 4.564109,2.38596 c 0.665215,-0.90676 -0.252247,-2.43963 -1.100246,-1.83827 -0.834563,0.59184 -0.534359,2.22058 0.40929,2.22058 0.225767,0 0.536698,-0.17204 0.690956,-0.38231 z m 13.800283,-2.11852 c 0.621292,-0.84688 -0.291236,-2.14782 -1.101606,-1.57049 -0.80977,0.5769 -0.521278,1.95466 0.40929,1.95466 0.225767,0 0.537309,-0.17288 0.692316,-0.38417 z m -6.758471,-4.67404 c 0.324714,-0.68639 -0.119544,-1.55637 -0.794759,-1.55637 -1.085714,0 -1.47027,1.25697 -0.596398,1.94941 0.571605,0.45292 1.055643,0.31617 1.391157,-0.39304 z m 17.984969,-0.47887 c 0.30572,-0.64623 0.0979,-1.27453 -0.49152,-1.48617 -0.59026,-0.21193 -1.13656,0.30741 -1.13656,1.08047 0,0.96819 1.21836,1.27178 1.62808,0.4057 z m -30.146082,-0.0285 c 0.663149,-0.4015 0.614146,-1.78885 -0.07385,-2.09072 -1.091412,-0.47886 -1.985088,0.88889 -1.212122,1.85513 0.466317,0.58292 0.655149,0.61751 1.285968,0.23559 z m 22.860422,-3.64651 c -0.0606,-0.59406 -0.18691,-0.70981 -0.77413,-0.70981 -0.566199,0 -0.717215,0.12483 -0.782327,0.64664 -0.105526,0.8458 0.549707,1.42639 1.179477,1.04511 0.30792,-0.18643 0.42664,-0.49565 0.37698,-0.98194 z m 8.23025,-4.54626 c 0.50532,-1.06815 -0.61104,-2.11332 -1.3565,-1.27 -0.36795,0.41625 -0.36048,1.45405 0.0117,1.62393 0.6187,0.28243 1.10421,0.15465 1.3448,-0.35393 z m -28.740824,2.78375 c -0.821589,-0.21123 -2.005503,-0.57633 -2.630921,-0.81133 l -1.137124,-0.42728 0.17518,-1.1033 c 0.09635,-0.60682 0.165575,-2.88924 0.153834,-5.07205 -0.02853,-5.30431 -0.671875,-9.38459 -2.07262,-13.14514 -0.123711,-0.33212 0.03198,-0.55813 0.61326,-0.89022 0.940849,-0.53752 3.965981,-3.08505 3.836867,-3.23111 -0.05047,-0.0571 -0.867591,0.37787 -1.815813,0.9666 -2.303975,1.4305 -6.1672,3.24304 -9.377363,4.39968 -4.780639,1.72247 -8.066986,1.50831 -9.974868,-0.65003 -1.08633,-1.22894 -1.432408,-2.72815 -1.256102,-5.44145 0.110407,-1.69913 0.07486,-1.89855 -0.430436,-2.4148 -0.302931,-0.3095 -0.943809,-0.70507 -1.424176,-0.87905 -0.480366,-0.17398 -1.093756,-0.63325 -1.363089,-1.02061 -0.697216,-1.00272 -0.456586,-2.06347 0.74793,-3.29704 0.535393,-0.54831 0.931472,-1.03093 0.880177,-1.07249 -0.0513,-0.0416 -0.555407,-0.30321 -1.120247,-0.58144 -0.716331,-0.35286 -1.119761,-0.75709 -1.333702,-1.33634 -0.49252,-1.33351 -0.135495,-2.1481 1.669523,-3.80921 0.894157,-0.82286 1.659244,-1.69293 1.700194,-1.93348 0.05076,-0.29817 -0.265914,-0.61836 -0.994978,-1.00605 -2.009499,-1.06858 -2.740583,-2.87069 -1.905616,-4.6973 0.181665,-0.39742 1.293881,-1.67143 2.471592,-2.83114 1.885845,-1.85701 4.44839,-5.13032 4.44839,-5.68223 0,-0.10815 -0.311608,-0.26713 -0.692462,-0.3533 -0.656617,-0.14857 -2.70814,-1.97148 -2.492834,-2.21505 0.05576,-0.0631 0.432397,0.079 0.836964,0.31562 0.457612,0.26771 1.150772,0.40006 1.834304,0.35024 l 1.098729,-0.0801 0.0091,-4.6302 c 0.0081,-4.11236 0.06965,-4.83735 0.550219,-6.4823 1.129755,-3.867064 3.600292,-7.975122 6.831211,-11.359069 1.051482,-1.101284 1.308697,-1.486306 0.899893,-1.347036 -0.733293,0.249817 -2.162184,1.013577 -3.474235,1.857022 -2.225891,1.430903 -4.936038,0.604927 -5.304444,-1.616644 -0.100356,-0.605168 -0.426363,-1.170798 -0.943902,-1.637697 -0.49187,-0.44374 -0.92598,-1.174093 -1.148894,-1.932913 -0.236417,-0.804785 -0.661851,-1.495643 -1.250673,-2.030953 -1.156533,-1.051427 -1.627737,-2.709686 -1.17365,-4.130297 0.273303,-0.855027 0.251812,-1.074981 -0.210142,-2.150646 -0.713033,-1.660303 -0.676029,-3.224149 0.106965,-4.520569 0.453646,-0.751111 0.660913,-1.505245 0.76727,-2.791698 0.135761,-1.642087 0.221185,-1.853854 1.249494,-3.097519 0.607073,-0.734212 1.10377,-1.585983 1.10377,-1.892826 0,-0.917515 0.396652,-1.486555 1.63902,-2.351345 0.648306,-0.451274 1.271867,-1.087736 1.385691,-1.414359 0.113826,-0.326624 0.334181,-0.979762 0.48968,-1.451417 0.164787,-0.499832 0.637103,-1.09929 1.132257,-1.437052 0.467243,-0.318722 1.228225,-0.957977 1.691072,-1.420566 0.462847,-0.462588 1.219969,-0.921384 1.682494,-1.019545 0.729797,-0.154884 0.917596,-0.36175 1.420786,-1.565041 0.74575,-1.783333 1.279565,-2.309668 2.5272,-2.491787 0.737654,-0.107677 1.279009,-0.423152 1.996182,-1.163276 0.672563,-0.694086 1.293336,-1.071483 1.961187,-1.192296 0.551195,-0.09971 1.294679,-0.489538 1.70558,-0.894278 1.363046,-1.342612 2.171381,-1.659656 3.626083,-1.422221 1.774732,0.289671 2.174124,0.204489 2.68128,-0.571866 0.492242,-0.753527 1.548766,-1.442641 2.211801,-1.442641 0.245707,0 0.844607,0.305447 1.330893,0.678771 l 0.884154,0.678771 0.844113,-0.908372 c 1.014688,-1.091932 1.723,-1.322992 2.866996,-0.935247 0.748928,0.253841 0.94857,0.2189 1.559041,-0.27286 0.779265,-0.627729 2.306144,-0.750842 3.49541,-0.281837 0.5904,0.232834 0.88099,0.186594 1.662744,-0.264583 1.127528,-0.650735 1.913551,-0.690066 2.849425,-0.142577 0.50991,0.298304 1.07345,0.362069 2.15177,0.243477 1.35322,-0.148826 1.54318,-0.100775 2.57658,0.651741 1.05469,0.768029 1.1714,0.795543 2.13622,0.50362 0.92074,-0.278591 1.19495,-0.23684 2.80357,0.426875 0.98065,0.404617 1.95137,0.66258 2.15714,0.573251 0.64306,-0.279156 2.27235,0.389277 3.15987,1.296367 0.64519,0.659412 1.15371,0.914336 2.10626,1.055912 1.39958,0.208013 2.07724,0.61531 3.13526,1.884422 0.39503,0.473838 1.00202,0.929191 1.34887,1.011896 0.34684,0.0827 0.8809,0.208526 1.18678,0.279601 0.3078,0.07152 1.01279,0.774853 1.57869,1.574982 0.88089,1.24548 1.13593,1.447544 1.84111,1.458683 1.36296,0.02153 2.38731,0.7833 3.04045,2.261065 0.38307,0.866734 0.84585,1.470508 1.34202,1.750927 1.09287,0.617639 1.44241,0.9992 1.9534,2.13232 0.29205,0.64761 0.73951,1.142871 1.25105,1.384663 0.91917,0.434467 1.46111,1.254737 1.6855,2.551129 0.22707,1.311822 0.71346,2.0353 1.58777,2.361731 1.27238,0.475047 2.27076,2.06362 2.54046,4.042226 0.0788,0.57812 0.4838,1.474735 0.96822,2.143521 0.59981,0.828073 0.87514,1.512256 0.98422,2.445754 0.11694,1.000666 0.35835,1.552813 1.05922,2.422571 1.15581,1.43433 1.36258,2.075879 1.36258,4.227693 0,1.091302 0.11934,1.904789 0.3177,2.165589 0.54675,0.718862 0.8517,2.149397 0.8517,3.995431 0,1.240198 0.15093,2.164941 0.49833,3.053414 0.41902,1.071632 0.47554,1.579394 0.35515,3.190669 -0.11773,1.575516 -0.0617,2.11935 0.31511,3.058666 0.59123,1.473797 0.59031,3.290803 -0.003,4.855133 -0.39209,1.03477 -0.44682,1.58143 -0.32665,3.26308 0.13398,1.87512 0.10117,2.09122 -0.45724,3.01184 -0.56101,0.92489 -0.59194,1.13327 -0.45858,3.08954 0.13804,2.02518 0.11807,2.14034 -0.57743,3.32818 -0.48649,0.83089 -0.77265,1.71778 -0.88125,2.7313 -0.18741,1.749 -0.38794,2.2723 -1.28489,3.35295 -0.42684,0.51426 -0.81742,1.46605 -1.10928,2.70307 -0.54636,2.31582 -0.95099,3.05401 -2.13911,3.9025 -0.91847,0.65592 -1.01327,0.83838 -1.31059,2.52256 -0.21355,1.20967 -0.85289,2.20668 -1.87195,2.91917 -0.47652,0.33317 -1.05462,1.09254 -1.3738,1.80459 -0.67455,1.50477 -1.11249,1.96836 -2.49083,2.6367 -0.75596,0.36655 -1.32647,0.92202 -1.94121,1.89002 -0.90953,1.4322 -1.66246,1.93606 -3.36788,2.25378 -0.79863,0.14879 -1.17514,0.42282 -1.86646,1.35843 -1.08751,1.4718 -2.41685,2.21856 -3.94936,2.21856 -0.93148,0 -1.40812,0.1767 -2.31953,0.85989 -1.24145,0.9306 -2.46986,1.08578 -4.84488,0.612 -0.88043,-0.17563 -1.31232,-0.12337 -2.03739,0.24652 -1.2021,0.61322 -2.77738,0.42471 -3.80177,-0.45496 -0.41889,-0.3597 -1.14079,-0.79459 -1.60426,-0.96641 -1.04916,-0.38895 -1.79415,-1.26609 -2.19732,-2.58706 l -0.31048,-1.01727 -0.19014,0.79375 c -0.32372,1.35145 -0.18354,6.49019 0.24529,8.99197 0.42215,2.46276 1.63146,6.32969 2.58106,8.25332 l 0.54583,1.10571 -0.50049,0.5195 c -1.81662,1.8856 -8.206399,5.73134 -11.671746,7.02473 -4.548185,1.69754 -11.604718,2.46914 -14.879954,1.62706 z m 12.437007,-36.15846 c 1.861262,-1.07058 5.664002,-4.04612 7.040827,-5.50927 1.6279,-1.72995 2.81411,-3.71928 3.43488,-5.76044 0.45774,-1.50509 0.61245,-4.03892 0.24661,-4.03892 -0.11124,0 -0.38449,0.86321 -0.60722,1.91823 -0.57391,2.71845 -1.67643,5.13779 -3.0452,6.68221 -1.232844,1.39108 -4.199066,3.71838 -6.527437,5.12144 -2.545034,1.53361 -4.549731,0.91736 -4.284797,-1.31718 0.136841,-1.15415 -0.09696,-1.31499 -0.63897,-0.43957 -0.763175,1.23262 -0.245265,2.85371 1.127676,3.52969 1.057755,0.52079 2.131305,0.45936 3.253631,-0.18619 z m 1.225972,-6.16696 c 2.721285,-1.28629 4.393879,-4.59533 3.25364,-6.43696 -0.57056,-0.92153 -0.810072,-0.70113 -0.652388,0.60033 0.197588,1.63081 -0.49825,2.755 -2.312407,3.73592 -1.549743,0.83795 -2.168215,1.4904 -1.96913,2.07731 0.172414,0.50829 0.640656,0.51481 1.680285,0.0234 z"
       id="path1" /></g></svg>
